REM DIRINDEX 1\4,1\2\5,1\2\6,1\3\7,1\3\8
REM DIRNAME cjc124,folder01,folder02,folder03,folder04,folder05,folder06,folder07
TITLE ""
FILE "096_Day48_Check3_Sentences.mp3" MP3
  TRACK 01 AUDIO
    TITLE "0:"
    INDEX 01 00:00:00
  TRACK 02 AUDIO
    TITLE "4:cjc124_3138"
    INDEX 01 00:00:25
  TRACK 03 AUDIO
    TITLE "0:"
    INDEX 01 00:02:00
  TRACK 04 AUDIO
    TITLE "7:cjc124_3139"
    INDEX 01 00:02:47
  TRACK 05 AUDIO
    TITLE "0:"
    INDEX 01 00:05:38
  TRACK 06 AUDIO
    TITLE "8:cjc124_3140"
    INDEX 01 00:05:56
  TRACK 07 AUDIO
    TITLE "0:"
    INDEX 01 00:08:24
  TRACK 08 AUDIO
    TITLE "7:cjc124_3141"
    INDEX 01 00:08:60
  TRACK 09 AUDIO
    TITLE "0:"
    INDEX 01 00:11:40
  TRACK 10 AUDIO
    TITLE "8:cjc124_3142"
    INDEX 01 00:11:52
  TRACK 11 AUDIO
    TITLE "0:"
    INDEX 01 00:15:27
  TRACK 12 AUDIO
    TITLE "7:cjc124_3143"
    INDEX 01 00:15:66
  TRACK 13 AUDIO
    TITLE "0:"
    INDEX 01 00:19:11
  TRACK 14 AUDIO
    TITLE "8:cjc124_3144"
    INDEX 01 00:19:26
  TRACK 15 AUDIO
    TITLE "0:"
    INDEX 01 00:22:48
  TRACK 16 AUDIO
    TITLE "7:cjc124_3145"
    INDEX 01 00:23:10
  TRACK 17 AUDIO
    TITLE "0:"
    INDEX 01 00:26:26
  TRACK 18 AUDIO
    TITLE "8:cjc124_3146"
    INDEX 01 00:26:42
  TRACK 19 AUDIO
    TITLE "0:"
    INDEX 01 00:28:74
  TRACK 20 AUDIO
    TITLE "7:cjc124_3147"
    INDEX 01 00:29:44
  TRACK 21 AUDIO
    TITLE "0:"
    INDEX 01 00:32:39
  TRACK 22 AUDIO
    TITLE "8:cjc124_3148"
    INDEX 01 00:32:54
  TRACK 23 AUDIO
    TITLE "0:"
    INDEX 01 00:35:70
  TRACK 24 AUDIO
    TITLE "7:cjc124_3149"
    INDEX 01 00:36:33
  TRACK 25 AUDIO
    TITLE "0:"
    INDEX 01 00:39:68
  TRACK 26 AUDIO
    TITLE "8:cjc124_3150"
    INDEX 01 00:40:09
  TRACK 27 AUDIO
    TITLE "0:"
    INDEX 01 00:43:54
  TRACK 28 AUDIO
    TITLE "7:cjc124_3151"
    INDEX 01 00:44:18
  TRACK 29 AUDIO
    TITLE "0:"
    INDEX 01 00:47:50
  TRACK 30 AUDIO
    TITLE "8:cjc124_3152"
    INDEX 01 00:47:66
  TRACK 31 AUDIO
    TITLE "0:"
    INDEX 01 00:50:66
  TRACK 32 AUDIO
    TITLE "7:cjc124_3153"
    INDEX 01 00:51:26
  TRACK 33 AUDIO
    TITLE "0:"
    INDEX 01 00:53:58
  TRACK 34 AUDIO
    TITLE "8:cjc124_3154"
    INDEX 01 00:53:74
  TRACK 35 AUDIO
    TITLE "0:"
    INDEX 01 00:56:00
  TRACK 36 AUDIO
    TITLE "7:cjc124_3155"
    INDEX 01 00:56:39
  TRACK 37 AUDIO
    TITLE "0:"
    INDEX 01 01:00:62
  TRACK 38 AUDIO
    TITLE "8:cjc124_3156"
    INDEX 01 01:01:03
  TRACK 39 AUDIO
    TITLE "0:"
    INDEX 01 01:04:33
  TRACK 40 AUDIO
    TITLE "7:cjc124_3157"
    INDEX 01 01:04:70
  TRACK 41 AUDIO
    TITLE "0:"
    INDEX 01 01:08:62
  TRACK 42 AUDIO
    TITLE "8:cjc124_3158"
    INDEX 01 01:09:03
  TRACK 43 AUDIO
    TITLE "0:"
    INDEX 01 01:12:48
  TRACK 44 AUDIO
    TITLE "7:cjc124_3159"
    INDEX 01 01:13:10
  TRACK 45 AUDIO
    TITLE "0:"
    INDEX 01 01:16:50
  TRACK 46 AUDIO
    TITLE "8:cjc124_3160"
    INDEX 01 01:16:73
  TRACK 47 AUDIO
    TITLE "0:"
    INDEX 01 01:20:32
  TRACK 48 AUDIO
    TITLE "7:cjc124_3161"
    INDEX 01 01:20:71
  TRACK 49 AUDIO
    TITLE "0:"
    INDEX 01 01:25:06
  TRACK 50 AUDIO
    TITLE "8:cjc124_3162"
    INDEX 01 01:25:23
  TRACK 51 AUDIO
    TITLE "0:"
    INDEX 01 01:28:45
  TRACK 52 AUDIO
    TITLE "7:cjc124_3163"
    INDEX 01 01:29:05
  TRACK 53 AUDIO
    TITLE "0:"
    INDEX 01 01:32:53
  TRACK 54 AUDIO
    TITLE "8:cjc124_3164"
    INDEX 01 01:33:05
  TRACK 55 AUDIO
    TITLE "0:"
    INDEX 01 01:37:28
  TRACK 56 AUDIO
    TITLE "7:cjc124_3165"
    INDEX 01 01:37:64
  TRACK 57 AUDIO
    TITLE "0:"
    INDEX 01 01:40:60
  TRACK 58 AUDIO
    TITLE "8:cjc124_3166"
    INDEX 01 01:41:01
  TRACK 59 AUDIO
    TITLE "0:"
    INDEX 01 01:44:15
  TRACK 60 AUDIO
    TITLE "7:cjc124_3167"
    INDEX 01 01:44:54
  TRACK 61 AUDIO
    TITLE "0:"
    INDEX 01 01:48:16
  TRACK 62 AUDIO
    TITLE "8:cjc124_3168"
    INDEX 01 01:48:34
  TRACK 63 AUDIO
    TITLE "0:"
    INDEX 01 01:51:09
  TRACK 64 AUDIO
    TITLE "7:cjc124_3169"
    INDEX 01 01:51:48
  TRACK 65 AUDIO
    TITLE "0:"
    INDEX 01 01:54:66
  TRACK 66 AUDIO
    TITLE "8:cjc124_3170"
    INDEX 01 01:55:05
  TRACK 67 AUDIO
    TITLE "0:"
    INDEX 01 01:58:32
